# xmcd
#
# Track frame offsets:
# 150
# 11771
# 24139
# 31876
# 43992
# 55832
# 68259
# 80411
# 95363
# 103666
# 114410
# 125735
# 139748
# 151975
# 162642
#
# Disc length: 2309 seconds
#
#
# Revision: 0
# Processed by: cddbd v1.4PL0 Copyright (c) Steve Scherf et al.
# Submitted via: HACP 1.17
#
DISCID=bc09030f
DTITLE=The Ranch Girls and the Ragtime Wranglers - Can You Hear It??
DYEAR=1900
DGENRE=
TTITLE0=Can You Hear It
TTITLE1=Tennessee Saturday Night
TTITLE2=Be Gone
TTITLE3=Hang On Folks, Here We Go
TTITLE4=Seashore
TTITLE5=O.K. You're My Baby
TTITLE6=I Ain't Worried About Tomorrow
TTITLE7=Between the Devil and the Deep Blue Sea
TTITLE8=Harmonize
TTITLE9=Don't Lie to Me
TTITLE10=City Boy
TTITLE11=You've Got Everything
TTITLE12=Baby of Mine
TTITLE13=Hillbilly Jive With a Boogie Beat
TTITLE14=Sugar Booger
EXTD=
EXTT0=
EXTT1=
EXTT2=
EXTT3=
EXTT4=
EXTT5=
EXTT6=
EXTT7=
EXTT8=
EXTT9=
EXTT10=
EXTT11=
EXTT12=
EXTT13=
EXTT14=
PLAYORDER=
